Coordinates
version=1
nRows=17
nColumns=36
inDegrees=yes

Units are S.I. units (second, meters, Newtons, ...)
If the header above contains a line with 'inDegrees', this indicates whether rotational values are in degrees (yes) or radians (no).

endheader
time	pelvis_tilt	pelvis_list	pelvis_rotation	pelvis_tx	pelvis_ty	pelvis_tz	hip_flexion_r	hip_adduction_r	hip_rotation_r	knee_angle_r	knee_angle_r_beta	ankle_angle_r	subtalar_angle_r	mtp_angle_r	hip_flexion_l	hip_adduction_l	hip_rotation_l	knee_angle_l	knee_angle_l_beta	ankle_angle_l	subtalar_angle_l	mtp_angle_l	lumbar_extension	lumbar_bending	lumbar_rotation	arm_flex_r	arm_add_r	arm_rot_r	elbow_flex_r	pro_sup_r	arm_flex_l	arm_add_l	arm_rot_l	elbow_flex_l	pro_sup_l
     29.65000000	     -5.98745848	      5.88686248	    -12.11576510	      0.68187772	      0.93493712	      0.74475809	     27.04226363	     -3.61057585	      7.13894851	     66.34384622	      1.15791855	     -6.27335501	    -16.26239643	     -7.49999987	     17.42216971	      5.16992535	     -7.25948259	     18.18695634	      0.31742227	      9.40760211	     -7.60915282	     -7.49999987	      5.80971857	     -6.30085263	      5.11848270	      0.31564978	     -8.90938384	      2.04520550	     22.93034013	     85.86466475	      3.10335934	     -9.20563104	     11.49731259	     18.34542743	     80.32626292
     29.66666670	     -6.28929491	      5.30518144	    -11.71117802	      0.67573262	      0.93704521	      0.74204392	     28.66329999	     -2.64892709	      6.56046415	     64.18450449	      1.12023093	     -1.58380218	    -15.71793816	     -7.49999987	     16.11822671	      4.95768985	     -6.70383050	     17.49700083	      0.30538027	     10.02611106	     -6.92186056	     -7.49999987	      5.89007622	     -5.51075945	      4.08796906	     -0.36651232	     -8.71837109	      2.02673977	     21.13419413	     86.08483897	      3.41489315	     -9.24015221	     11.62556250	     18.29552876	     80.46147609
     29.68333330	     -6.71865266	      4.83061691	    -11.39484620	      0.66924479	      0.93795901	      0.74031160	     30.30037764	     -1.80296319	      6.16771183	     60.90353893	      1.06296728	      1.60400781	    -16.30184148	     -7.49999987	     15.11241350	      4.77262941	     -6.29783632	     16.91655139	      0.29524952	     10.42304124	     -6.53676617	     -7.49999987	      5.99625296	     -4.82449242	      3.45902873	     -1.39259835	     -8.64661090	      1.99233758	     20.45862082	     86.09001076	      3.86970052	     -9.31693451	     11.60484791	     18.68271104	     80.45407830
     29.70000000	     -6.95632391	      4.30852201	    -11.02505524	      0.66585153	      0.93922437	      0.73928115	     31.48120876	     -1.28233357	      5.44607346	     56.76132089	      0.99067194	      4.34157846	    -15.39464912	     -7.49999987	     13.94060838	      4.56617631	     -5.93906000	     16.37540450	      0.28580472	     11.31353933	     -5.51643146	     -7.49999987	      5.98314673	     -4.08834028	      2.26900522	     -1.55859204	     -8.41068225	      1.83817095	     18.26396314	     85.94635032	      4.13490857	     -9.44049864	     11.29627237	     18.81627169	     80.38829370
     29.71666670	     -7.21326504	      3.91605299	    -10.83200038	      0.66552729	      0.93920007	      0.73870107	     32.51970795	     -0.84922189	      4.96472649	     52.22381359	      0.91147750	      5.36595182	    -15.26299743	     -7.49999987	     12.79899091	      4.45730371	     -5.58734191	     15.78195729	      0.27544712	     11.84530173	     -5.00105322	     -7.49999987	      6.11830766	     -3.49107023	      1.68153609	     -2.66740338	     -8.42081560	      1.77968659	     17.30420585	     86.15378766	      4.52456009	     -9.51999942	     11.19321111	     19.14583166	     80.55800548
     29.73333330	     -7.30527986	      3.75742699	    -10.75405671	      0.66622736	      0.93728961	      0.73830488	     33.31206184	     -0.70247107	      4.61623624	     47.62955715	      0.83129259	      5.80593373	    -14.97886477	     -7.49999987	     11.48214769	      4.55829950	     -5.39474648	     15.09893311	      0.26352610	     12.21846018	     -4.59001671	     -7.49999987	      6.46327149	     -3.32578654	      1.04969105	     -3.90539766	     -8.26721000	      1.70115947	     16.26787701	     86.38704175	      4.80326255	     -9.71513977	     11.02751437	     19.18958337	     80.75020026
     29.75000000	     -6.96349067	      3.38831011	    -10.64401280	      0.66662759	      0.93548274	      0.73762924	     33.37910642	     -0.60224415	      4.03133522	     42.84812153	      0.74784080	      6.01607095	    -14.18546404	     -7.49999987	      9.73961926	      4.44967473	     -5.38573242	     14.56098878	      0.25413720	     13.28140037	     -3.42558513	     -7.49999987	      6.01671253	     -2.89640468	     -0.07875597	     -4.41793583	     -8.20198610	      0.97874503	     15.32922099	     86.40132461	      4.80393746	     -9.87714621	     10.16442825	     20.05291562	     80.91486716
     29.76666670	     -6.93075606	      3.26313241	    -10.61405171	      0.66684016	      0.93398009	      0.73726763	     33.67410204	     -0.65454612	      3.65427287	     37.88236831	      0.66117206	      5.91549775	    -13.28385193	     -7.49999987	      8.36164110	      4.50498889	     -5.15876855	     13.95613289	      0.24358047	     14.03933056	     -3.08058729	     -7.49999987	      6.16275000	     -2.82243214	     -0.71148699	     -5.29134801	     -8.19410668	      0.01290747	     15.21468134	     85.50288119	      4.77010789	     -9.95672653	      8.55175160	     20.98560401	     80.50594608
     29.78333330	     -6.85867242	      3.24560569	    -10.55247786	      0.66702530	      0.93286120	      0.73694877	     33.78457467	     -0.87840297	      3.20854745	     32.64764370	      0.56980888	      5.76295786	    -11.91130956	     -7.49999987	      6.91482642	      4.63714360	     -4.99390181	     13.28989525	      0.23195243	     14.84258192	     -2.98926708	     -7.49999987	      6.29555479	     -2.87874495	     -1.29534160	     -6.03313799	     -8.21642018	     -0.83634437	     15.41596873	     84.70079490	      4.75880889	    -10.06373281	      7.29631714	     21.99434523	     80.19276766
     29.80000000	     -6.62855522	      3.24332492	    -10.43875055	      0.66711215	      0.93116103	      0.73686463	     33.55410753	     -1.09445106	      2.71801325	     27.14746229	      0.47381260	      5.65433755	    -10.14106813	     -7.49999987	      5.26401003	      4.77869058	     -5.07426799	     12.65078171	      0.22079779	     15.72038110	     -2.73763639	     -7.49999987	      6.17217593	     -3.01347308	     -1.86288386	     -6.71533599	     -8.32267137	     -1.53505394	     15.96782561	     83.92991170	      4.80766117	    -10.33139873	      6.22377515	     23.20077688	     79.90637132
     29.81666670	     -6.82987933	      3.37782699	    -10.25815678	      0.66697757	      0.92844857	      0.73728661	     33.78087617	     -1.29757943	      2.15440837	     21.90362314	      0.38229034	      5.97592062	     -7.72180418	     -7.49999987	      4.14151160	      5.02207800	     -5.03662733	     12.14097101	      0.21189992	     16.28362450	     -3.37963711	     -7.49999987	      6.79828856	     -3.23353978	     -2.59079086	     -7.54691556	     -8.39324263	     -2.03266563	     16.86836737	     82.85721176	      4.58902707	    -10.65533044	      5.58834325	     24.07885173	     79.21535315
     29.83333330	     -6.19371157	      3.20664800	     -9.91038438	      0.66583696	      0.92821484	      0.73806894	     32.91205649	     -1.33187942	      1.66811923	     16.85225481	      0.29412733	      6.18165800	     -5.58002712	     -7.49999987	      2.24126270	      5.04397300	     -5.33289076	     11.91001477	      0.20786897	     17.56741940	     -2.75279249	     -7.49999987	      5.95136796	     -3.33988092	     -3.03133280	     -7.92950957	     -8.38966010	     -2.36809379	     17.20196207	     81.93176169	      4.92226536	    -10.86914348	      4.97400079	     25.36268380	     78.84505627
     29.85000000	     -6.10519974	      3.17334399	     -9.58491399	      0.66489099	      0.92895742	      0.73893321	     32.78496580	     -1.31809499	      1.51650029	     12.64493123	      0.22069568	      6.83464132	     -3.28431021	     -7.49999987	      1.17372677	      5.13707040	     -5.58121596	     11.99873832	      0.20941749	     18.55171999	     -2.89947360	     -7.49999987	      5.98294760	     -3.46512435	     -3.47673006	     -8.50124791	     -8.42866441	     -2.50458807	     17.91765964	     80.77846569	      4.97958922	    -11.07030120	      4.70630645	     26.05697285	     78.32440209
     29.86666670	     -6.06222212	      3.03848829	     -9.23099396	      0.66419735	      0.92986306	      0.73956137	     32.79169718	     -1.19966736	      1.58074814	      9.30316971	      0.16237094	      7.53888561	     -1.44340877	     -7.49999987	      0.36596236	      5.11560777	     -5.80469195	     12.44320821	      0.21717495	     19.39155755	     -3.13997130	     -7.49999987	      5.99021855	     -3.46139724	     -3.77200753	     -8.98399955	     -8.44739778	     -2.66133924	     18.52371689	     79.89579303	      5.09026103	    -11.19497457	      4.75332220	     26.46476594	     77.95977123
     29.88333330	     -6.16185156	      2.78158092	     -8.92326091	      0.66333572	      0.92818934	      0.74028905	     33.02261031	     -0.90897163	      1.86981870	      6.98372681	      0.12188903	      8.10696093	     -0.49369312	     -7.49999987	     -0.16042631	      4.91475967	     -6.03048786	     13.34271545	      0.23287432	     20.06440367	     -3.53349151	     -7.49999987	      6.17806395	     -3.31169591	     -3.95714937	     -9.31879426	     -8.52101508	     -2.79496659	     18.82650230	     79.91696870	      5.11994841	    -11.16280847	      4.75686059	     26.68515973	     78.06727457
     29.90000000	     -6.26085127	      2.37542247	     -8.78955507	      0.66186031	      0.92269492	      0.74100654	     33.27210244	     -0.38323040	      2.11145021	      5.93436586	      0.10357422	      8.75397590	     -0.04470572	     -7.49999987	     -0.63607690	      4.49027736	     -6.27328694	     14.64627576	      0.25562574	     20.48205152	     -3.88602186	     -7.49999987	      6.23641456	     -2.99648633	     -4.04431051	     -9.48701036	     -8.65115100	     -2.88554925	     19.05318992	     79.88841164	      5.10870709	    -11.08794690	      4.77761793	     26.82403181	     78.09926131
     29.91666670	     -6.49554554	      1.56603656	     -8.55644172	      0.66032487	      0.91357176	      0.74008415	     33.43225176	      0.46652786	      1.19769715	      6.11267309	      0.10668627	      9.28160971	      0.79648853	     -7.49999987	     -1.08615818	      3.52944115	     -6.53050814	     16.21693220	      0.28303886	     20.95854996	     -3.50916164	     -7.49999987	      6.22231728	     -2.09616657	     -4.17354632	    -10.00139019	     -9.04214121	     -3.74767325	     20.13645761	     79.12474996	      5.14637440	    -10.72218064	      5.01745993	     27.03774057	     78.03918486
